<?xml version="1.0" encoding="utf-8"?>
<!-- Generator: Adobe Illustrator 24.2.1, SVG Export Plug-In . SVG Version: 6.00 Build 0)  -->
<svg version="1.0" id="Layer_1" xmlns="http://www.w3.org/2000/svg" xmlns:xlink="http://www.w3.org/1999/xlink" x="0px" y="0px"
	 viewBox="0 0 130 85.98" style="enable-background:new 0 0 130 85.98;" xml:space="preserve">
<style type="text/css">
	.st0{fill:url(#SVGID_1_);}
	.st1{fill:#086D3B;}
	.st2{fill:#F4162B;}
</style>
<g>
	<radialGradient id="SVGID_1_" cx="34.1397" cy="29.0496" r="22.4519" gradientUnits="userSpaceOnUse">
		<stop  offset="0" style="stop-color:#F0E803"/>
		<stop  offset="1" style="stop-color:#FAA623"/>
	</radialGradient>
	<path class="st0" d="M46.96,8.96c-0.06,0.78-0.06,1.58-0.14,2.39c-0.07,0.63-0.14,1.26-0.24,1.88c-0.13,0.79-0.3,1.58-0.49,2.36
		c-0.52,2.06-1.22,4.05-2.09,5.98c-0.95,2.12-2.07,4.16-3.31,6.12c-1.31,2.07-2.75,4.05-4.3,5.95c-0.3,0.37-0.61,0.73-0.9,1.1
		c-0.48,0.59-0.96,1.17-1.42,1.78c-0.95,1.24-1.53,2.64-1.78,4.18c-0.12,0.73-0.18,1.47-0.19,2.22c-0.01,0.82,0.04,1.64,0.13,2.46
		c0.13,1.15,0.33,2.28,0.58,3.41c0.45,2.05,1.04,4.07,1.72,6.06c0.35,1.03,0.73,2.05,1.1,3.08c0.02,0.06,0.06,0.11,0.03,0.18
		c0,0.01-0.02,0.02-0.03,0.02c-0.03-0.01-0.06-0.02-0.08-0.04c-0.19-0.19-0.38-0.38-0.57-0.57c-1.1-1.16-2.17-2.34-3.21-3.55
		c-2.02-2.37-3.91-4.84-5.59-7.47c-1.03-1.6-1.96-3.24-2.76-4.96c-0.61-1.3-1.12-2.64-1.5-4.03c-0.22-0.81-0.39-1.63-0.49-2.46
		c-0.06-0.5-0.09-1.01-0.09-1.51c0.01-1.11,0.16-2.2,0.54-3.26c0.33-0.91,0.79-1.75,1.41-2.51c0.12-0.15,0.25-0.29,0.38-0.42
		c1.41-1.39,2.79-2.79,4.16-4.22c1.14-1.19,2.27-2.38,3.37-3.6c0.67-0.74,1.34-1.47,2-2.22c1.14-1.27,2.25-2.57,3.34-3.88
		c0.95-1.14,1.88-2.3,2.78-3.48c1.22-1.59,2.38-3.23,3.43-4.94c0.51-0.84,0.98-1.69,1.38-2.59c0.27-0.62,0.51-1.26,0.64-1.93
		c0.03-0.14,0.05-0.28,0.07-0.42c0.01-0.04,0.02-0.06,0.06-0.05c0.01,0,0.03,0.01,0.04,0.02c0.05,0.08,0.11,0.16,0.15,0.24
		c0.35,0.66,0.63,1.35,0.86,2.05c0.3,0.92,0.53,1.85,0.69,2.8c0.15,0.9,0.26,1.81,0.28,2.73C46.91,8.21,46.94,8.57,46.96,8.96z"/>
	<path class="st1" d="M28.67,81.83c-1,0.04-2.2,0.08-3.4,0.13c-0.82,0.04-1.64,0.09-2.46,0.14c-0.73,0.04-1.45,0.08-2.18,0.13
		c-0.61,0.04-1.23,0.1-1.84,0.15c-0.46,0.04-0.91,0.08-1.37,0.12c-0.91,0.08-1.82,0.16-2.73,0.27c-0.64,0.08-1.29,0.14-1.93,0.23
		c-0.77,0.1-1.53,0.22-2.3,0.34c-0.78,0.12-1.56,0.26-2.33,0.41c-1.27,0.25-2.53,0.55-3.76,0.96c-0.96,0.32-1.9,0.69-2.75,1.26
		c-0.01,0.01-0.03,0.02-0.04,0.02c-0.03,0-0.06,0-0.08-0.01c-0.01,0-0.02-0.03-0.02-0.04c0.04-0.31,0.13-0.62,0.22-0.92
		c0.35-1.16,0.87-2.23,1.52-3.25c0.89-1.41,1.97-2.67,3.19-3.8c1.23-1.14,2.57-2.14,4-3.02c1.82-1.13,3.73-2.05,5.72-2.84
		c2.14-0.85,4.34-1.53,6.58-2.09c1.42-0.36,2.86-0.66,4.3-0.92c0.87-0.16,1.74-0.29,2.62-0.42c0.83-0.12,1.66-0.23,2.49-0.34
		c0.45-0.06,0.91-0.09,1.37-0.14c0.44-0.05,0.88-0.09,1.32-0.15c0.68-0.09,1.32-0.3,1.95-0.57c0.99-0.42,1.91-0.98,2.77-1.63
		c1.08-0.81,2.03-1.75,2.92-2.77c1.06-1.22,1.98-2.54,2.82-3.91c1.09-1.78,2.01-3.65,2.83-5.57c0.24-0.55,0.45-1.11,0.68-1.66
		c0.02-0.06,0.06-0.11,0.09-0.16c0.01-0.01,0.03-0.01,0.04-0.01c0.01,0,0.02,0.01,0.03,0.02c0,0.06,0.01,0.13,0.01,0.19
		c0,0.81,0,1.61-0.04,2.42c-0.01,0.24-0.01,0.47-0.03,0.71c-0.04,0.85-0.07,1.71-0.13,2.56c-0.08,1.04-0.17,2.08-0.28,3.11
		c-0.16,1.51-0.38,3.01-0.65,4.5c-0.38,2.04-0.85,4.05-1.5,6.01c-0.47,1.41-1.03,2.78-1.73,4.1c-0.61,1.15-1.32,2.23-2.2,3.19
		c-0.55,0.61-1.16,1.16-1.84,1.63c-1.11,0.77-2.33,1.25-3.67,1.45c-0.58,0.08-1.16,0.13-1.75,0.1c-0.24-0.01-0.47-0.01-0.71-0.01
		c-0.98,0.01-1.96,0.02-2.94,0.04C30.61,81.77,29.75,81.8,28.67,81.83z"/>
	<path class="st1" d="M87.25,58.43c-1.2,0-2.4,0-3.6,0c-0.68,0-1.36-0.02-2.03-0.11c-0.86-0.12-1.71-0.31-2.51-0.66
		c-0.67-0.29-1.29-0.67-1.81-1.19c-0.78-0.77-1.23-1.71-1.38-2.79c-0.01-0.11-0.02-0.22-0.02-0.33c0-1.07,0-2.15,0-3.22
		c0-0.05,0-0.09,0.01-0.14c0-0.06,0.06-0.11,0.13-0.11c0.14,0,0.28-0.01,0.43-0.01c0.93,0.01,1.86,0.01,2.8,0.02
		c0.55,0,1.11,0.01,1.66,0.01c0.08,0,0.16,0.01,0.23,0.02c0.02,0,0.06,0.04,0.06,0.06c0.02,0.08,0.03,0.15,0.03,0.23
		c0,0.52,0,1.04,0,1.56c0,0.17,0.01,0.35,0.03,0.52c0.07,0.65,0.39,1.16,0.93,1.53c0.4,0.27,0.84,0.44,1.31,0.53
		c0.2,0.04,0.41,0.06,0.61,0.06c2.56,0,5.12,0,7.68,0c0.13,0,0.25-0.01,0.38-0.02c0.33-0.03,0.6-0.19,0.82-0.42
		c0.19-0.2,0.32-0.43,0.43-0.67c0.2-0.45,0.31-0.93,0.38-1.41c0.02-0.13,0.03-0.25,0.03-0.38c0.02-0.6,0.03-1.2-0.02-1.8
		c-0.03-0.38-0.13-0.75-0.29-1.09c-0.32-0.66-0.82-1.11-1.54-1.3c-0.31-0.08-0.61-0.14-0.93-0.17c-0.83-0.09-1.67-0.15-2.5-0.21
		c-1.07-0.07-2.14-0.13-3.22-0.19c-0.79-0.04-1.58-0.07-2.37-0.1c-0.85-0.03-1.7-0.12-2.53-0.35c-0.61-0.17-1.2-0.4-1.74-0.73
		c-1.31-0.79-2.14-1.94-2.49-3.43c-0.08-0.32-0.11-0.65-0.11-0.99c0-1.17,0-2.34,0-3.51c0-0.59,0.06-1.17,0.21-1.74
		c0.33-1.28,1.05-2.28,2.12-3.05c0.69-0.49,1.45-0.83,2.26-1.07c0.62-0.19,1.25-0.31,1.9-0.4c0.5-0.07,1.01-0.09,1.51-0.09
		c2.39,0,4.77,0,7.16,0c0.33,0,0.66,0,0.99,0.02c0.9,0.06,1.79,0.23,2.63,0.57c1.75,0.72,2.94,1.98,3.52,3.79
		c0.11,0.35,0.18,0.7,0.17,1.07c-0.01,0.76,0,1.52,0,2.28c0,0.11-0.01,0.22-0.01,0.33c0,0.06-0.06,0.11-0.13,0.11
		c-0.05,0-0.09,0.01-0.14,0.01c-1.56,0-3.13,0-4.69,0c-0.06,0-0.13,0-0.19-0.02c-0.03-0.01-0.06-0.04-0.07-0.06
		c-0.01-0.08-0.02-0.16-0.02-0.24c0-0.43,0-0.85,0-1.28c0-0.21-0.02-0.41-0.06-0.61c-0.11-0.57-0.42-1.02-0.89-1.35
		c-0.5-0.35-1.06-0.55-1.68-0.56c-0.41,0-0.82,0-1.23,0c-1.3,0-2.59,0-3.89,0c-0.3,0-0.6,0.01-0.9,0.03
		c-0.46,0.03-0.91,0.13-1.34,0.29c-0.3,0.11-0.58,0.25-0.83,0.44c-0.62,0.47-0.96,1.08-0.97,1.86c-0.01,0.66,0,1.33,0,1.99
		c0,0.56,0.22,1.01,0.62,1.38c0.26,0.24,0.55,0.42,0.87,0.57c0.51,0.25,1.05,0.43,1.6,0.56c0.78,0.19,1.58,0.32,2.38,0.41
		c1.35,0.15,2.71,0.2,4.07,0.18c0.71-0.01,1.42,0.02,2.13,0.11c0.9,0.11,1.77,0.3,2.61,0.64c0.5,0.2,0.97,0.45,1.41,0.77
		c0.87,0.64,1.47,1.46,1.75,2.52c0.09,0.34,0.14,0.68,0.14,1.03c0,1.58-0.01,3.16,0,4.74c0,0.46-0.05,0.91-0.17,1.36
		c-0.18,0.72-0.53,1.35-1.04,1.89c-0.41,0.44-0.89,0.8-1.42,1.09c-0.68,0.38-1.41,0.64-2.16,0.83c-1.03,0.26-2.07,0.41-3.14,0.4
		C89.87,58.43,88.56,58.43,87.25,58.43z"/>
	<path class="st1" d="M115.67,58.43c-1.41,0-2.81,0-4.22,0c-1.08,0-2.13-0.2-3.15-0.57c-0.6-0.22-1.16-0.51-1.66-0.9
		c-0.77-0.61-1.29-1.38-1.52-2.34c-0.09-0.38-0.14-0.78-0.14-1.17c0-0.96,0-1.93,0-2.89c0-0.36,0-0.73,0-1.09
		c0-0.09,0-0.19,0.01-0.28c0-0.06,0.06-0.12,0.12-0.12c0.05,0,0.09-0.01,0.14-0.01c1.42,0,2.84,0,4.27,0c0.06,0,0.13,0,0.19,0.01
		c0.04,0.01,0.09,0.05,0.09,0.09c0.02,0.11,0.02,0.22,0.02,0.33c0,0.68,0,1.36,0,2.04c0,0.41,0.07,0.82,0.19,1.21
		c0.08,0.26,0.2,0.5,0.35,0.72c0.36,0.53,0.87,0.81,1.5,0.89c0.17,0.02,0.35,0.02,0.52,0.02c2.07,0,4.14,0,6.21,0
		c0.51,0,1-0.1,1.47-0.3c0.16-0.07,0.31-0.15,0.46-0.24c0.65-0.41,0.98-1.01,1.04-1.77c0.01-0.09,0.01-0.19,0.01-0.28
		c0-0.92,0.01-1.83,0-2.75c-0.01-1-0.49-1.71-1.38-2.14c-0.26-0.12-0.53-0.2-0.82-0.23c-0.31-0.04-0.63-0.06-0.94-0.06
		c-1.45,0-2.91,0-4.36,0c-0.14,0-0.28-0.01-0.43-0.01c-0.03,0-0.1-0.06-0.1-0.09c0-0.05-0.01-0.09-0.01-0.14c0-1.09,0-2.18,0-3.27
		c0-0.05,0.01-0.09,0.01-0.14c0-0.06,0.05-0.09,0.09-0.09c0.14-0.01,0.28-0.02,0.42-0.02c1.5,0,3,0,4.5,0c0.22,0,0.44,0,0.66-0.04
		c0.84-0.14,1.4-0.61,1.69-1.41c0.12-0.33,0.14-0.68,0.17-1.03c0.01-0.09,0-0.19,0-0.28c0-0.74,0-1.49,0-2.23
		c0-0.17-0.01-0.35-0.04-0.52c-0.08-0.55-0.36-0.97-0.81-1.28c-0.37-0.26-0.79-0.4-1.23-0.47c-0.34-0.05-0.69-0.08-1.04-0.08
		c-1.69,0-3.38,0-5.07,0c-0.48,0-0.94,0.06-1.41,0.18c-0.31,0.08-0.6,0.2-0.87,0.37c-0.51,0.34-0.79,0.81-0.79,1.43
		c-0.01,0.76,0,1.52,0,2.28c0,0.14,0,0.28-0.01,0.43c0,0.09-0.06,0.14-0.15,0.14c-0.06,0-0.13,0-0.19,0
		c-1.36-0.02-2.72-0.04-4.08-0.06c-0.11,0-0.22-0.02-0.33-0.03c-0.02,0-0.05-0.03-0.06-0.06c-0.01-0.04-0.02-0.09-0.02-0.14
		c0-1.03,0-2.05,0-3.08c0-0.42,0.1-0.81,0.23-1.21c0.48-1.49,1.4-2.63,2.77-3.41c0.72-0.41,1.49-0.67,2.3-0.84
		c0.75-0.15,1.5-0.21,2.26-0.21c0.92,0,1.83,0,2.75,0c1.33,0,2.65,0,3.98-0.01c1.06-0.01,2.11,0.12,3.14,0.41
		c0.64,0.18,1.26,0.43,1.83,0.77c0.38,0.23,0.73,0.5,1.05,0.81c0.7,0.7,1.12,1.56,1.3,2.53c0.07,0.39,0.11,0.78,0.1,1.18
		c-0.01,0.81,0.01,1.61,0,2.42c-0.01,1.06-0.29,2.06-0.8,2.99c-0.19,0.35-0.43,0.66-0.71,0.94c-0.54,0.54-1.18,0.89-1.92,1.07
		c-0.28,0.07-0.56,0.11-0.84,0.12c-0.09,0-0.19,0.02-0.28,0.04c-0.02,0-0.06,0.04-0.06,0.06c-0.01,0.08-0.01,0.16-0.01,0.23
		c0,0.06,0.04,0.09,0.08,0.1c0.18,0.04,0.37,0.07,0.56,0.11c0.59,0.12,1.16,0.3,1.7,0.56c0.39,0.19,0.75,0.41,1.07,0.69
		c0.78,0.68,1.19,1.54,1.21,2.58c0.01,0.63,0,1.26,0,1.9c0,0.73-0.01,1.45,0,2.18c0,0.34-0.05,0.66-0.14,0.98
		c-0.52,1.77-1.62,3.04-3.3,3.81c-0.68,0.31-1.4,0.48-2.14,0.59c-0.53,0.08-1.07,0.1-1.61,0.1
		C118.23,58.44,116.95,58.43,115.67,58.43C115.67,58.43,115.67,58.43,115.67,58.43z"/>
	<path class="st2" d="M66.1,51.99c-0.03,0.91-0.1,1.71-0.27,2.5c-0.05,0.22-0.09,0.43-0.13,0.65c-0.13,0.75-0.37,1.47-0.67,2.17
		c-0.34,0.78-0.75,1.53-1.21,2.25c-0.72,1.14-1.53,2.21-2.39,3.24c-1.52,1.82-3.18,3.51-4.91,5.13c-1.37,1.28-2.79,2.51-4.25,3.7
		c-0.13,0.11-0.27,0.21-0.41,0.32c-0.03,0.02-0.06,0.01-0.08-0.02c-0.01-0.01-0.01-0.03,0-0.04c0.03-0.07,0.07-0.14,0.11-0.21
		c0.44-0.79,0.88-1.57,1.31-2.36c1.48-2.77,2.85-5.6,4.15-8.46c0.46-1.01,0.9-2.02,1.35-3.03c0.32-0.72,0.57-1.47,0.75-2.24
		c0.16-0.73,0.22-1.47,0.13-2.21c-0.13-1.1-0.63-2.01-1.49-2.71c-0.49-0.41-1.05-0.71-1.64-0.94c-0.54-0.22-1.11-0.37-1.68-0.48
		c-0.53-0.1-1.06-0.17-1.59-0.22c-0.93-0.1-1.86-0.08-2.79-0.05c-0.35,0.01-0.69,0.05-1.04,0.08c-0.38,0.03-0.41,0.03-0.38-0.37
		c0.02-0.35,0.04-0.69,0.07-1.04c0-0.05,0.01-0.09,0.01-0.14c0.04-0.76,0.08-1.51,0.13-2.27c0.05-0.79,0.1-1.58,0.15-2.36
		c0.01-0.13,0.01-0.25,0.02-0.38c0.01-0.22,0.01-0.44,0.03-0.66c0.06-0.57,0.03-1.14-0.01-1.7c-0.06-0.76-0.23-1.5-0.52-2.2
		c-0.49-1.18-1.3-2.08-2.41-2.71c-0.7-0.41-1.46-0.67-2.25-0.85c-1.23-0.27-2.47-0.34-3.72-0.26c-0.68,0.04-1.35,0.1-2.02,0.24
		c-0.06,0.01-0.12,0-0.19,0c-0.01,0-0.02-0.02-0.03-0.03c0-0.01-0.01-0.04,0-0.05c0.03-0.03,0.07-0.07,0.1-0.1
		c1.83-1.3,3.73-2.49,5.75-3.47c0.97-0.47,1.96-0.88,2.98-1.22c0.8-0.26,1.61-0.47,2.43-0.6c0.84-0.14,1.7-0.17,2.55-0.11
		c0.39,0.03,0.78,0.11,1.16,0.21c0.6,0.16,1.08,0.5,1.44,1.01c0.3,0.43,0.55,0.88,0.74,1.37c0.21,0.56,0.35,1.14,0.43,1.74
		c0.1,0.68,0.1,1.36,0.07,2.03c-0.03,0.61-0.11,1.23-0.22,1.83c-0.35,1.89-0.95,3.7-1.72,5.45c-0.4,0.91-0.83,1.81-1.34,2.66
		c-0.12,0.2-0.22,0.42-0.27,0.65c-0.06,0.24,0.08,0.48,0.33,0.56c0.2,0.06,0.4,0.1,0.61,0.04c0.11-0.03,0.22-0.04,0.32-0.07
		c0.93-0.25,1.87-0.45,2.82-0.59c0.44-0.07,0.88-0.11,1.32-0.15c0.63-0.06,1.26-0.08,1.89-0.05c0.89,0.04,1.76,0.17,2.6,0.46
		c0.49,0.17,0.97,0.39,1.4,0.68c0.86,0.58,1.49,1.35,1.9,2.31c0.3,0.72,0.48,1.47,0.53,2.25C66.07,51.46,66.08,51.78,66.1,51.99z"/>
	<path class="st1" d="M77.98,67.06c0-0.81,0-1.61,0-2.42c0-0.22,0.02-0.44,0.08-0.66c0.2-0.72,0.89-1.36,1.78-1.39
		c0.11,0,0.22,0,0.33,0c1.33,0,2.65,0,3.98,0c0.11,0,0.22,0,0.33,0c0.56,0.02,1.03,0.37,1.22,0.9c0.05,0.13,0.07,0.28,0.07,0.42
		c0.01,0.44,0,0.88,0,1.33c0,0.12-0.05,0.17-0.17,0.18c-0.35,0-0.69,0-1.04,0c-0.37,0-0.4,0.01-0.4-0.39c0-0.06,0-0.13-0.01-0.19
		c-0.03-0.35-0.3-0.61-0.65-0.63c-0.06,0-0.13,0-0.19,0c-0.93,0-1.86,0-2.8,0c-0.08,0-0.16,0-0.24,0c-0.3,0.02-0.64,0.26-0.69,0.67
		c-0.01,0.09-0.01,0.19-0.01,0.28c0,1.37,0,2.75,0,4.12c0,0.08,0,0.16,0,0.24c0,0.21,0.19,0.48,0.49,0.48c0.09,0,0.19,0,0.28,0
		c1,0,1.99,0,2.99,0c0.11,0,0.22,0,0.33-0.01c0.24-0.02,0.45-0.23,0.47-0.46c0.02-0.2,0.02-0.41,0.01-0.62
		c-0.01-0.74,0.1-0.63-0.62-0.63c-0.47,0-0.95,0-1.42,0c-0.11,0-0.22,0-0.33-0.01c-0.07,0-0.13-0.05-0.13-0.11c0-0.46,0-0.92,0-1.37
		c0-0.06,0.06-0.11,0.12-0.12c0.08,0,0.16-0.01,0.24-0.01c1.12,0,2.24,0,3.36,0c0.09,0,0.19,0.01,0.28,0.01
		c0.06,0,0.08,0.05,0.09,0.09c0.01,0.09,0.01,0.19,0.01,0.28c0,1.01,0,2.02,0,3.03c0,0.08,0,0.16,0,0.24
		c-0.02,0.72-0.63,1.27-1.27,1.29c-0.09,0-0.19,0-0.28,0c-1.36,0-2.72,0-4.08,0c-0.11,0-0.22,0-0.33-0.01
		c-0.81-0.04-1.74-0.71-1.83-1.86c-0.01-0.13,0-0.25,0-0.38C77.98,68.61,77.98,67.83,77.98,67.06z"/>
	<path class="st1" d="M105.49,67.11c0,0.66,0,1.33,0,1.99c0,0.4-0.07,0.78-0.23,1.15c-0.08,0.19-0.18,0.37-0.3,0.54
		c-0.36,0.48-0.85,0.75-1.44,0.81c-0.16,0.02-0.32,0.02-0.47,0.02c-1.2,0-2.4,0-3.6,0c-0.28,0-0.57-0.01-0.84-0.09
		c-0.51-0.15-0.9-0.45-1.18-0.9c-0.24-0.38-0.38-0.8-0.41-1.25C97.01,69.28,97,69.17,97,69.06c0-1.3,0-2.59,0-3.89
		c0-0.38,0.05-0.76,0.2-1.11c0.04-0.09,0.07-0.18,0.11-0.26c0.36-0.73,0.96-1.11,1.76-1.19c0.13-0.01,0.25-0.01,0.38-0.01
		c1.2,0,2.4,0,3.6,0c0.25,0,0.5,0.01,0.75,0.08c0.57,0.14,1,0.46,1.3,0.96c0.26,0.44,0.4,0.93,0.4,1.44c0,0.47,0,0.95,0,1.42
		C105.49,66.7,105.49,66.91,105.49,67.11C105.49,67.11,105.49,67.11,105.49,67.11z M98.61,67.12c0,0.58,0,1.17,0,1.75
		c0,0.13,0,0.25,0.01,0.38c0.02,0.25,0.15,0.45,0.36,0.58c0.12,0.08,0.25,0.14,0.39,0.16c0.16,0.02,0.31,0.03,0.47,0.04
		c0.93,0,1.86,0,2.8,0c0.14,0,0.28-0.02,0.43-0.03c0.15-0.01,0.28-0.06,0.4-0.13c0.23-0.13,0.38-0.33,0.4-0.6
		c0.01-0.11,0.02-0.22,0.02-0.33c0-1.22,0-2.43,0-3.65c0-0.13-0.01-0.25-0.02-0.38c-0.01-0.15-0.09-0.27-0.18-0.38
		c-0.1-0.11-0.22-0.18-0.35-0.23c-0.21-0.09-0.43-0.1-0.65-0.1c-0.95,0-1.9,0-2.84,0c-0.09,0-0.19,0-0.28,0.01
		c-0.18,0.01-0.34,0.06-0.5,0.14c-0.25,0.14-0.41,0.34-0.43,0.64c-0.01,0.13-0.01,0.25-0.01,0.38
		C98.61,65.95,98.61,66.54,98.61,67.12z"/>
	<path class="st1" d="M94.64,67.57c0.11,0.07,0.2,0.13,0.29,0.2c0.19,0.16,0.31,0.36,0.32,0.61c0,0.06,0.01,0.13,0.01,0.19
		c0,0.95,0,1.9,0,2.84c0,0.05-0.01,0.09-0.02,0.14c-0.01,0.02-0.04,0.04-0.06,0.06c-0.01,0.01-0.03,0.01-0.04,0.01
		c-0.44,0-0.88,0-1.33,0c-0.08,0-0.14-0.07-0.14-0.16c0-0.28,0-0.57-0.01-0.85c0-0.4,0-0.79,0-1.19c0-0.11,0-0.22-0.01-0.33
		c-0.02-0.34-0.33-0.69-0.69-0.74c-0.09-0.01-0.19-0.03-0.28-0.03c-1.07,0-2.15,0-3.22,0c-0.05,0-0.1,0.01-0.14,0.02
		c-0.03,0.01-0.06,0.04-0.07,0.06c-0.01,0.11-0.02,0.22-0.03,0.33c0,0.82,0,1.64,0,2.46c0,0.11-0.01,0.22-0.02,0.33
		c0,0.02-0.04,0.04-0.06,0.06c-0.01,0.01-0.03,0.02-0.04,0.02c-0.44,0-0.88,0-1.33,0c-0.09,0-0.15-0.06-0.15-0.15
		c0-0.13-0.01-0.25-0.01-0.38c0-2.65,0-5.31,0-7.96c0-0.61-0.05-0.53,0.53-0.53c1.82,0,3.63,0,5.45,0c0.22,0,0.44,0,0.65,0.08
		c0.6,0.23,0.95,0.65,1.02,1.3c0.01,0.09,0.01,0.19,0.01,0.28c0,0.74,0,1.49,0,2.23c0,0.08,0,0.16,0,0.24
		c-0.01,0.29-0.14,0.51-0.37,0.68C94.81,67.47,94.73,67.51,94.64,67.57z M91.15,67.12c0.25,0,0.51,0,0.76,0c0.32,0,0.63,0,0.95,0
		c0.2,0,0.37-0.07,0.51-0.21c0.16-0.14,0.25-0.32,0.27-0.54c0-0.05,0.01-0.09,0.01-0.14c0-0.36,0-0.73,0-1.09
		c0-0.16-0.02-0.32-0.1-0.46c-0.17-0.3-0.42-0.46-0.77-0.48c-0.06,0-0.13,0-0.19,0c-1.01,0-2.02,0-3.03,0c-0.08,0-0.16,0-0.24,0.01
		c-0.06,0-0.11,0.06-0.12,0.13c0,0.03-0.01,0.06-0.01,0.09c0,0.81,0,1.61,0,2.42c0,0.05,0.01,0.09,0.01,0.14
		c0.01,0.06,0.07,0.11,0.13,0.12c0.09,0,0.19,0.01,0.28,0.01C90.13,67.12,90.64,67.12,91.15,67.12z"/>
	<path class="st1" d="M106.88,66.04c0-1.01,0-2.02,0-3.03c0-0.11,0.01-0.22,0.02-0.33c0-0.02,0.04-0.05,0.06-0.07
		c0.01-0.01,0.03-0.01,0.05-0.01c0.44,0,0.88,0,1.33,0c0.09,0,0.15,0.06,0.15,0.14c0,0.14,0.01,0.28,0.01,0.43c0,1.86,0,3.73,0,5.59
		c0,0.16,0,0.32,0.01,0.47c0.02,0.29,0.17,0.51,0.42,0.64c0.11,0.06,0.23,0.1,0.36,0.12c0.14,0.03,0.28,0.03,0.42,0.03
		c0.95,0,1.89,0,2.84,0c0.14,0,0.28-0.02,0.42-0.03c0.16-0.02,0.31-0.08,0.44-0.17c0.16-0.11,0.28-0.25,0.32-0.45
		c0.02-0.12,0.04-0.25,0.05-0.37c0.01-0.19,0-0.38,0-0.57c0-1.77,0-3.54,0-5.31c0-0.14,0-0.28,0.01-0.43c0-0.06,0.07-0.11,0.13-0.11
		c0.44,0,0.88,0,1.33,0c0.08,0,0.14,0.06,0.14,0.15c0,0.11,0.01,0.22,0.01,0.33c0,1.96,0,3.92,0,5.87c0,0.38-0.05,0.75-0.17,1.12
		c-0.09,0.26-0.2,0.5-0.37,0.71c-0.36,0.48-0.85,0.75-1.44,0.82c-0.11,0.01-0.22,0.02-0.33,0.02c-1.29,0-2.59,0-3.88,0
		c-0.25,0-0.5-0.03-0.75-0.1c-0.45-0.14-0.82-0.4-1.08-0.8c-0.3-0.44-0.45-0.93-0.48-1.46c-0.01-0.13,0-0.25,0-0.38
		C106.88,67.94,106.88,66.99,106.88,66.04z"/>
	<path class="st1" d="M117.51,67.05c0-1.3,0-2.59,0-3.89c0-0.14,0-0.28,0.01-0.43c0-0.08,0.07-0.14,0.16-0.14c0.03,0,0.06,0,0.09,0
		c1.44,0,2.87-0.01,4.31,0c0.83,0,1.53,0.33,2.09,0.95c0.41,0.46,0.64,1.01,0.69,1.63c0.03,0.42,0.05,0.85-0.04,1.27
		c-0.23,1.12-0.9,1.85-1.98,2.2c-0.26,0.08-0.52,0.11-0.79,0.11c-0.79,0-1.58,0-2.37,0c-0.14,0-0.28,0.01-0.43,0.01
		c-0.06,0-0.11,0.07-0.12,0.13c0,0.13-0.01,0.25-0.01,0.38c0,0.63,0,1.26,0,1.9c0,0.06,0,0.13,0,0.19c0,0.2-0.03,0.23-0.21,0.23
		c-0.27,0-0.54,0-0.81,0c-0.66-0.01-0.59,0.08-0.59-0.57C117.51,69.71,117.51,68.38,117.51,67.05z M120.65,67.16
		C120.65,67.16,120.65,67.16,120.65,67.16c0.46,0,0.92,0,1.37,0c0.59-0.01,1.15-0.53,1.18-1.14c0.01-0.22,0.01-0.44,0-0.66
		c-0.03-0.63-0.59-1.14-1.17-1.16c-0.08,0-0.16,0-0.24,0c-0.79,0-1.58,0-2.37,0c-0.08,0-0.16,0.01-0.23,0.02
		c-0.02,0-0.06,0.04-0.06,0.06c-0.01,0.06-0.02,0.12-0.02,0.19c0,0.63,0,1.26,0,1.89c0,0.17,0,0.35,0,0.52c0,0.05,0,0.09,0.01,0.14
		c0,0.08,0.07,0.14,0.15,0.14C119.74,67.16,120.2,67.16,120.65,67.16z"/>
</g>
</svg>
